<?xml version="1.0" encoding="UTF-8" standalone="no"?>
<!-- Uploaded to: SVG Repo, www.svgrepo.com, Generator: SVG Repo Mixer Tools -->

<svg
   version="1.1"
   id="Layer_1"
   viewBox="0 0 24 23.993267"
   xml:space="preserve"
   sodipodi:docname="balanceSheet.svg"
   width="24"
   height="23.993267"
   inkscape:version="1.3.2 (091e20e, 2023-11-25, custom)"
   xmlns:inkscape="http://www.inkscape.org/namespaces/inkscape"
   xmlns:sodipodi="http://sodipodi.sourceforge.net/DTD/sodipodi-0.dtd"
   xmlns="http://www.w3.org/2000/svg"
   xmlns:svg="http://www.w3.org/2000/svg"><defs
   id="defs5" /><sodipodi:namedview
   id="namedview5"
   pagecolor="#ffffff"
   bordercolor="#000000"
   borderopacity="0.25"
   inkscape:showpageshadow="2"
   inkscape:pageopacity="0.0"
   inkscape:pagecheckerboard="true"
   inkscape:deskcolor="#d1d1d1"
   inkscape:zoom="34.208333"
   inkscape:cx="12"
   inkscape:cy="12.233861"
   inkscape:window-width="1920"
   inkscape:window-height="1017"
   inkscape:window-x="1352"
   inkscape:window-y="-8"
   inkscape:window-maximized="1"
   inkscape:current-layer="Layer_1" />





<g
   id="g1"
   transform="scale(1,0.97638432)"><g
     id="g6"
     style="stroke:#ffffff;stroke-width:0.5;stroke-dasharray:none;stroke-opacity:1"
     transform="translate(0,0.25)"><polygon
       points="174.528,484.072 256.336,387.688 337.504,484.088 325.248,494.392 256.272,412.456 186.704,494.408 "
       id="polygon1"
       transform="matrix(0.046875,0,0,0.05016219,0,-0.8415209)"
       style="stroke:#ffffff;stroke-width:10.3112;stroke-dasharray:none;stroke-opacity:1" /><rect
       x="11.625"
       y="19.313646"
       width="0.75"
       height="4.6863527"
       id="rect1"
       style="stroke:#ffffff;stroke-width:0.5;stroke-dasharray:none;stroke-opacity:1" /></g><path
     style="fill:#e04f5f;stroke-width:0.0484907"
     d="M 22.5,5.2301022 H 1.5 C 0.675,5.2301022 0,4.5077667 0,3.6249121 v 0 c 0,-0.8828545 0.675,-1.60519 1.5,-1.60519 h 21 c 0.825,0 1.5,0.7223355 1.5,1.60519 v 0 c 0,0.8828546 -0.675,1.6051901 -1.5,1.6051901 z"
     id="path1" /><path
     style="fill:#25b6d2;stroke-width:0.0484907"
     d="M 21.6,5.1482375 V 17.989758 c 0,0.706284 -0.54,1.284152 -1.2,1.284152 H 3.6 c -0.66,0 -1.2,-0.577868 -1.2,-1.284152 V 5.1482375"
     id="path2" /><path
     d="m 10.34625,2.0197221 v 0 C 10.34625,1.0461743 11.09025,0.25 12,0.25 v 0 c 0.90975,0 1.65375,0.7961743 1.65375,1.7697221 v 0"
     id="path3"
     style="stroke:#ffffff;stroke-width:0.5;stroke-dasharray:none;stroke-opacity:1" /><g
     id="g5"
     transform="matrix(0.046875,0,0,0.05016219,0,-0.5915209)">
	<rect
   x="229.968"
   y="167.73599"
   style="fill:#ffffff"
   width="63.119999"
   height="170.20799"
   id="rect3" />
	<rect
   x="128.96001"
   y="242.12"
   style="fill:#ffffff"
   width="63.119999"
   height="95.744003"
   id="rect4" />
	<rect
   x="330.95999"
   y="274.12"
   style="fill:#ffffff"
   width="63.119999"
   height="63.824001"
   id="rect5" />
</g></g>
</svg>
