<?xml version="1.0" encoding="UTF-8" standalone="no"?>
<!-- Uploaded to: SVG Repo, www.svgrepo.com, Generator: SVG Repo Mixer Tools -->

<svg
   version="1.0"
   id="Layer_1"
   width="24"
   height="23.999777"
   viewBox="0 0 1.92 1.9199821"
   enable-background="new 0 0 64 64"
   xml:space="preserve"
   sodipodi:docname="banks.svg"
   inkscape:version="1.3.2 (091e20e, 2023-11-25, custom)"
   xmlns:inkscape="http://www.inkscape.org/namespaces/inkscape"
   xmlns:sodipodi="http://sodipodi.sourceforge.net/DTD/sodipodi-0.dtd"
   xmlns="http://www.w3.org/2000/svg"
   xmlns:svg="http://www.w3.org/2000/svg"><defs
   id="defs12" /><sodipodi:namedview
   id="namedview12"
   pagecolor="#ffffff"
   bordercolor="#000000"
   borderopacity="0.25"
   inkscape:showpageshadow="2"
   inkscape:pageopacity="0.0"
   inkscape:pagecheckerboard="true"
   inkscape:deskcolor="#d1d1d1"
   inkscape:zoom="34.208651"
   inkscape:cx="12.014505"
   inkscape:cy="11.999888"
   inkscape:window-width="1920"
   inkscape:window-height="1017"
   inkscape:window-x="-8"
   inkscape:window-y="-8"
   inkscape:window-maximized="1"
   inkscape:current-layer="Layer_1" />
<g
   id="g12"
   transform="scale(0.02999972)">
	<g
   id="g3">
		<rect
   x="18"
   y="25"
   fill="#506c7f"
   width="4"
   height="29"
   id="rect1" />
		<rect
   x="30"
   y="25"
   fill="#506c7f"
   width="4"
   height="29"
   id="rect2" />
		<rect
   x="42"
   y="25"
   fill="#506c7f"
   width="4"
   height="29"
   id="rect3" />
	</g>
	<g
   id="g7">
		<rect
   x="48"
   y="25"
   fill="#b4ccb9"
   width="4"
   height="29"
   id="rect4" />
		<rect
   x="24"
   y="25"
   fill="#b4ccb9"
   width="4"
   height="29"
   id="rect5" />
		<rect
   x="36"
   y="25"
   fill="#b4ccb9"
   width="4"
   height="29"
   id="rect6" />
		<rect
   x="12"
   y="25"
   fill="#b4ccb9"
   width="4"
   height="29"
   id="rect7" />
	</g>
	<g
   id="g8">
		<path
   fill="#f9ebb2"
   d="m 8,56 c -1.104,0 -2,0.896 -2,2 h 52 c 0,-1.104 -0.895,-2 -2,-2 z"
   id="path7" />
		<path
   fill="#f9ebb2"
   d="M 60,60 H 4 c -1.104,0 -2,0.896 -2,2 h 60 c 0,-1.104 -0.895,-2 -2,-2 z"
   id="path8" />
	</g>
	<path
   fill="#f9ebb2"
   d="m 4,23 h 56 c 0.893,0 1.684,-0.601 1.926,-1.461 0.24,-0.86 -0.125,-1.785 -0.889,-2.248 l -28,-17 C 32.725,2.1 32.365,2 32,2 31.633,2 31.275,2.1 30.963,2.29 L 2.961,19.291 C 2.197,19.754 1.832,20.679 2.073,21.538 2.315,22.399 3.107,23 4,23 Z"
   id="path9" />
	<g
   id="g11">
		<path
   fill="#394240"
   d="m 60,58 c 0,-2.209 -1.791,-4 -4,-4 H 54 V 25 h 6 c 1.795,0 3.369,-1.194 3.852,-2.922 0.484,-1.728 -0.242,-3.566 -1.775,-4.497 l -28,-17 C 33.439,0.193 32.719,0 32,0 31.281,0 30.562,0.193 29.924,0.581 l -28,17 c -1.533,0.931 -2.26,2.77 -1.775,4.497 C 0.632,23.806 2.207,25 4,25 h 6 V 54 H 8 c -2.209,0 -4,1.791 -4,4 -2.209,0 -4,1.791 -4,4 v 2 h 64 v -2 c 0,-2.209 -1.791,-4 -4,-4 z M 4,23 C 3.107,23 2.315,22.399 2.074,21.538 1.833,20.679 2.198,19.754 2.962,19.291 l 28,-17.001 C 31.275,2.1 31.635,2 32,2 c 0.367,0 0.725,0.1 1.039,0.291 l 28,17 c 0.764,0.463 1.129,1.388 0.887,2.248 C 61.686,22.399 60.893,23 60,23 Z m 48,2 V 54 H 48 V 25 Z m -6,0 V 54 H 42 V 25 Z m -6,0 V 54 H 36 V 25 Z m -6,0 V 54 H 30 V 25 Z m -6,0 V 54 H 24 V 25 Z m -6,0 V 54 H 18 V 25 Z m -6,0 V 54 H 12 V 25 Z M 8,56 h 48 c 1.105,0 2,0.896 2,2 H 6 c 0,-1.104 0.896,-2 2,-2 z m -6,6 c 0,-1.104 0.896,-2 2,-2 h 56 c 1.105,0 2,0.896 2,2 z"
   id="path10" />
		<path
   fill="#394240"
   d="m 32,9 c -2.762,0 -5,2.238 -5,5 0,2.762 2.238,5 5,5 2.762,0 5,-2.238 5,-5 0,-2.762 -2.238,-5 -5,-5 z m 0,8 c -1.656,0 -3,-1.343 -3,-3 0,-1.657 1.344,-3 3,-3 1.658,0 3,1.343 3,3 0,1.657 -1.342,3 -3,3 z"
   id="path11" />
	</g>
	<circle
   fill="#f76d57"
   cx="32"
   cy="14"
   r="3"
   id="circle11" />
</g>
</svg>
