<?xml version="1.0" encoding="UTF-8" standalone="no"?>
<!-- Uploaded to: SVG Repo, www.svgrepo.com, Generator: SVG Repo Mixer Tools -->

<svg
   height="25"
   width="25.000002"
   version="1.1"
   id="Layer_1"
   viewBox="0 0 16.000001 16"
   xml:space="preserve"
   sodipodi:docname="error.svg"
   inkscape:version="1.3.2 (091e20e, 2023-11-25, custom)"
   xmlns:inkscape="http://www.inkscape.org/namespaces/inkscape"
   xmlns:sodipodi="http://sodipodi.sourceforge.net/DTD/sodipodi-0.dtd"
   xmlns="http://www.w3.org/2000/svg"
   xmlns:svg="http://www.w3.org/2000/svg"><defs
   id="defs3" /><sodipodi:namedview
   id="namedview3"
   pagecolor="#ffffff"
   bordercolor="#000000"
   borderopacity="0.25"
   inkscape:showpageshadow="2"
   inkscape:pageopacity="0.0"
   inkscape:pagecheckerboard="true"
   inkscape:deskcolor="#d1d1d1"
   inkscape:zoom="32.84"
   inkscape:cx="12.5"
   inkscape:cy="12.5"
   inkscape:window-width="1920"
   inkscape:window-height="1017"
   inkscape:window-x="-8"
   inkscape:window-y="-8"
   inkscape:window-maximized="1"
   inkscape:current-layer="Layer_1" />





<g
   id="g4"
   transform="matrix(0.03126462,0,0,0.03125,-0.00374785,0)"><path
     style="fill:#ff3f62"
     d="M 437.02,74.98 C 388.668,26.629 324.38,0 256,0 187.62,0 123.333,26.629 74.981,74.98 -24.833,174.794 -24.834,337.203 74.979,437.018 123.331,485.371 187.62,512 256,512 c 68.38,0 132.668,-26.629 181.02,-74.982 99.813,-99.815 99.813,-262.224 0,-362.038 z"
     id="path1" /><path
     id="SVGCleanerId_0"
     style="fill:#830018"
     d="M 371.193,338.28 288.912,256 l 82.28,-82.281 c 9.089,-9.087 9.089,-23.824 0,-32.912 -9.087,-9.089 -23.824,-9.087 -32.912,0 L 256,223.088 173.718,140.806 c -9.087,-9.089 -23.824,-9.089 -32.912,0 -9.089,9.087 -9.089,23.824 0,32.912 L 223.087,256 140.805,338.282 c -9.089,9.087 -9.089,23.824 0,32.912 4.544,4.546 10.501,6.817 16.455,6.817 5.955,0 11.913,-2.273 16.455,-6.817 L 256,288.912 l 82.281,82.28 c 4.544,4.544 10.501,6.817 16.455,6.817 5.954,0 11.913,-2.273 16.455,-6.817 9.091,-9.087 9.091,-23.823 0.002,-32.912 z" /><path
     style="fill:#ff3f62"
     d="m 256,0 v 223.088 l 82.28,-82.282 c 9.087,-9.087 23.824,-9.089 32.912,0 9.089,9.087 9.089,23.824 0,32.912 l -82.28,82.282 82.281,82.28 c 9.089,9.087 9.089,23.824 0,32.912 -4.544,4.544 -10.501,6.817 -16.457,6.817 -5.956,0 -11.913,-2.273 -16.455,-6.817 L 256,288.912 V 512 c 68.38,0 132.668,-26.629 181.02,-74.982 99.814,-99.815 99.814,-262.225 0,-362.038 C 388.668,26.629 324.38,0 256,0 Z"
     id="path2" /><path
     id="SVGCleanerId_1"
     style="fill:#ff0c38"
     d="m 173.718,371.194 c -4.544,4.544 -10.501,6.817 -16.455,6.817 -5.956,0 -11.913,-2.271 -16.457,-6.817 -9.089,-9.087 -9.089,-23.824 0,-32.912 L 223.087,256 140.805,173.719 c -9.089,-9.087 -9.089,-23.824 0,-32.912 9.087,-9.089 23.825,-9.089 32.912,0 L 256,223.088 V 0 C 187.62,0 123.333,26.629 74.981,74.98 -24.833,174.794 -24.834,337.203 74.979,437.018 123.331,485.371 187.62,512 256,512 V 288.912 Z" /><g
     id="g2"
     style="fill:#ffffff;fill-opacity:1">
	<path
   id="SVGCleanerId_0_1_"
   style="fill:#ffffff;fill-opacity:1"
   d="M 371.193,338.28 288.912,256 l 82.28,-82.281 c 9.089,-9.087 9.089,-23.824 0,-32.912 -9.087,-9.089 -23.824,-9.087 -32.912,0 L 256,223.088 173.718,140.806 c -9.087,-9.089 -23.824,-9.089 -32.912,0 -9.089,9.087 -9.089,23.824 0,32.912 L 223.087,256 140.805,338.282 c -9.089,9.087 -9.089,23.824 0,32.912 4.544,4.546 10.501,6.817 16.455,6.817 5.955,0 11.913,-2.273 16.455,-6.817 L 256,288.912 l 82.281,82.28 c 4.544,4.544 10.501,6.817 16.455,6.817 5.954,0 11.913,-2.273 16.455,-6.817 9.091,-9.087 9.091,-23.823 0.002,-32.912 z" />
</g><g
     id="g3">
	<path
   id="SVGCleanerId_1_1_"
   style="fill:#ff0c38"
   d="m 173.718,371.194 c -4.544,4.544 -10.501,6.817 -16.455,6.817 -5.956,0 -11.913,-2.271 -16.457,-6.817 -9.089,-9.087 -9.089,-23.824 0,-32.912 L 223.087,256 140.805,173.719 c -9.089,-9.087 -9.089,-23.824 0,-32.912 9.087,-9.089 23.825,-9.089 32.912,0 L 256,223.088 V 0 C 187.62,0 123.333,26.629 74.981,74.98 -24.833,174.794 -24.834,337.203 74.979,437.018 123.331,485.371 187.62,512 256,512 V 288.912 Z" />
</g></g>
</svg>
