<?xml version="1.0" encoding="UTF-8" standalone="no"?>
<!-- Uploaded to: SVG Repo, www.svgrepo.com, Generator: SVG Repo Mixer Tools -->

<svg
   width="24.000002"
   height="24.000002"
   viewBox="0 0 3.8400003 3.8400003"
   aria-hidden="true"
   role="img"
   class="iconify iconify--noto"
   preserveAspectRatio="xMidYMid"
   version="1.1"
   id="svg23"
   sodipodi:docname="face.svg"
   inkscape:version="1.3.2 (091e20e, 2023-11-25, custom)"
   xmlns:inkscape="http://www.inkscape.org/namespaces/inkscape"
   xmlns:sodipodi="http://sodipodi.sourceforge.net/DTD/sodipodi-0.dtd"
   xmlns="http://www.w3.org/2000/svg"
   xmlns:svg="http://www.w3.org/2000/svg">
  <defs
     id="defs23" />
  <sodipodi:namedview
     id="namedview23"
     pagecolor="#ffffff"
     bordercolor="#000000"
     borderopacity="0.25"
     inkscape:showpageshadow="2"
     inkscape:pageopacity="0.0"
     inkscape:pagecheckerboard="true"
     inkscape:deskcolor="#d1d1d1"
     inkscape:zoom="34.208331"
     inkscape:cx="12.000001"
     inkscape:cy="12.000001"
     inkscape:window-width="1920"
     inkscape:window-height="1017"
     inkscape:window-x="1352"
     inkscape:window-y="-8"
     inkscape:window-maximized="1"
     inkscape:current-layer="svg23" />
  <radialGradient
     id="IconifyId17ecdb2904d178eab7971"
     cx="63.599998"
     cy="1400.9"
     r="56.959999"
     gradientTransform="translate(0,-1338)"
     gradientUnits="userSpaceOnUse">
    <stop
       offset=".5"
       stop-color="#fde030"
       id="stop1" />
    <stop
       offset=".92"
       stop-color="#f7c02b"
       id="stop2" />
    <stop
       offset="1"
       stop-color="#f4a223"
       id="stop3" />
  </radialGradient>
  <linearGradient
     id="IconifyId17ecdb2904d178eab7972"
     gradientUnits="userSpaceOnUse"
     x1="63.599998"
     y1="1456.8"
     x2="63.599998"
     y2="1345"
     gradientTransform="translate(0,-1338)">
    <stop
       offset=".16"
       stop-color="#f4a223"
       id="stop4" />
    <stop
       offset=".33"
       stop-color="#f7c02b"
       id="stop5" />
    <stop
       offset=".81"
       stop-color="#fde030"
       stop-opacity="0"
       id="stop6" />
  </linearGradient>
  <radialGradient
     id="IconifyId17ecdb2904d178eab7973"
     cx="43.235001"
     cy="-153.882"
     r="19.473"
     gradientTransform="matrix(0.98,0,0,-0.93,-15.12,-74.95)"
     gradientUnits="userSpaceOnUse">
    <stop
       offset="0"
       stop-color="#ed7770"
       id="stop7" />
    <stop
       offset=".08"
       stop-color="#ed7770"
       stop-opacity=".96"
       id="stop8" />
    <stop
       offset=".22"
       stop-color="#ed7770"
       stop-opacity=".85"
       id="stop9" />
    <stop
       offset=".39"
       stop-color="#ed7770"
       stop-opacity=".68"
       id="stop10" />
    <stop
       offset=".59"
       stop-color="#ed7770"
       stop-opacity=".43"
       id="stop11" />
    <stop
       offset=".81"
       stop-color="#ed7770"
       stop-opacity=".13"
       id="stop12" />
    <stop
       offset=".9"
       stop-color="#ed7770"
       stop-opacity="0"
       id="stop13" />
  </radialGradient>
  <radialGradient
     id="IconifyId17ecdb2904d178eab7974"
     cx="117.833"
     cy="-153.882"
     r="19.473"
     gradientTransform="matrix(0.98,0,0,-0.93,-15.12,-74.95)"
     gradientUnits="userSpaceOnUse">
    <stop
       offset="0"
       stop-color="#ed7770"
       id="stop14" />
    <stop
       offset=".08"
       stop-color="#ed7770"
       stop-opacity=".96"
       id="stop15" />
    <stop
       offset=".22"
       stop-color="#ed7770"
       stop-opacity=".85"
       id="stop16" />
    <stop
       offset=".39"
       stop-color="#ed7770"
       stop-opacity=".68"
       id="stop17" />
    <stop
       offset=".59"
       stop-color="#ed7770"
       stop-opacity=".43"
       id="stop18" />
    <stop
       offset=".81"
       stop-color="#ed7770"
       stop-opacity=".13"
       id="stop19" />
    <stop
       offset=".9"
       stop-color="#ed7770"
       stop-opacity="0"
       id="stop20" />
  </radialGradient>
  <radialGradient
     id="IconifyId17ecdb2904d178eab7975"
     cx="63.060001"
     cy="56.060001"
     r="65.059998"
     gradientTransform="matrix(1,0,0,-1,0,130)"
     gradientUnits="userSpaceOnUse">
    <stop
       offset=".27"
       stop-color="#fff176"
       id="stop21" />
    <stop
       offset="1"
       stop-color="#ffc400"
       id="stop22" />
  </radialGradient>
  <g
     id="g23"
     transform="matrix(0.03310345,0,0,0.03434705,-0.18537932,-0.24042935)">
    <path
       d="M 63.6,118.8 C 35.7,118.8 5.6,101.3 5.6,62.9 5.6,24.5 35.7,7 63.6,7 c 15.5,0 29.8,5.1 40.4,14.4 11.5,10.2 17.6,24.6 17.6,41.5 0,16.9 -6.1,31.2 -17.6,41.4 -10.6,9.3 -25,14.5 -40.4,14.5 z"
       fill="url(#IconifyId17ecdb2904d178eab7971)"
       id="path3"
       style="fill:url(#IconifyId17ecdb2904d178eab7971)" />
    <path
       d="M 63.6,118.8 C 35.7,118.8 5.6,101.3 5.6,62.9 5.6,24.5 35.7,7 63.6,7 c 15.5,0 29.8,5.1 40.4,14.4 11.5,10.2 17.6,24.6 17.6,41.5 0,16.9 -6.1,31.2 -17.6,41.4 -10.6,9.3 -25,14.5 -40.4,14.5 z"
       fill="url(#IconifyId17ecdb2904d178eab7972)"
       id="path6"
       style="fill:url(#IconifyId17ecdb2904d178eab7972)" />
    <path
       d="m 111.49,29.67 c 5.33,8.6 8.11,18.84 8.11,30.23 0,16.9 -6.1,31.2 -17.6,41.4 -10.6,9.3 -25,14.5 -40.4,14.5 -18.06,0 -37,-7.35 -48.18,-22.94 10.76,17.66 31,25.94 50.18,25.94 15.4,0 29.8,-5.2 40.4,-14.5 11.5,-10.2 17.6,-24.5 17.6,-41.4 0,-12.74 -3.47,-24.06 -10.11,-33.23 z"
       fill="#eb8f00"
       id="path7" />
    <circle
       cx="27.25"
       cy="68.160004"
       r="17.5"
       opacity="0.8"
       fill="url(#IconifyId17ecdb2904d178eab7973)"
       id="circle13"
       style="fill:url(#IconifyId17ecdb2904d178eab7973)" />
    <circle
       cx="100.36"
       cy="68.160004"
       r="17.5"
       opacity="0.8"
       fill="url(#IconifyId17ecdb2904d178eab7974)"
       id="circle20"
       style="fill:url(#IconifyId17ecdb2904d178eab7974)" />
    <path
       d="M 49.56,49.12 49.41,48.92 49,48.38 48.47,47.8 c -0.22,-0.24 -0.48,-0.49 -0.73,-0.75 -0.25,-0.26 -0.56,-0.5 -0.84,-0.72 -0.26,-0.2 -0.54,-0.39 -0.84,-0.54 -0.2,-0.11 -0.42,-0.2 -0.65,-0.25 a 0.739,0.739 0 0 0 -0.21,0 h 0.1 -0.55 c -0.15,0 0,0 0,0 h 0.08 c 0.08,0 0,0 0,0 a 0.205,0.205 0 0 0 -0.11,0 c -0.23,0.05 -0.45,0.13 -0.66,0.25 -0.29,0.16 -0.58,0.34 -0.84,0.54 -0.28,0.22 -0.57,0.47 -0.83,0.72 -0.53,0.51 -1,1 -1.3,1.39 l -0.52,0.6 -0.23,0.27 a 4.231,4.231 0 0 1 -5.62,0.61 3.532,3.532 0 0 1 -1.47,-3.47 c 0,0 0.07,-0.41 0.26,-1.12 0.31,-1.01 0.73,-1.99 1.25,-2.91 0.86,-1.5 2.01,-2.8 3.38,-3.84 0.92,-0.71 1.95,-1.27 3.05,-1.66 0.3,-0.12 0.61,-0.21 0.92,-0.29 0.33,-0.09 0.66,-0.17 1,-0.23 l 0.61,-0.09 0.51,-0.05 h 1.85 c 0.34,0 0.67,0.09 1,0.14 1.79,0.33 3.48,1.07 4.92,2.18 1.38,1.04 2.53,2.34 3.38,3.84 0.31,0.52 0.58,1.07 0.8,1.64 0.19,0.44 0.35,0.88 0.48,1.34 0.07,0.24 0.13,0.48 0.16,0.72 v 0.25 c 0.3,2.05 -1.12,3.95 -3.17,4.25 -0.05,0.01 -0.09,0.01 -0.14,0.02 -1.49,0.24 -3,-0.34 -3.95,-1.52 z"
       fill="#422b0d"
       id="path20" />
    <path
       d="M 87.06,49.12 86.9,48.92 86.47,48.38 85.94,47.8 c -0.22,-0.24 -0.48,-0.49 -0.73,-0.75 -0.25,-0.26 -0.56,-0.5 -0.84,-0.72 -0.26,-0.2 -0.54,-0.39 -0.84,-0.54 -0.2,-0.11 -0.42,-0.2 -0.65,-0.25 a 0.739,0.739 0 0 0 -0.21,0 h 0.1 -0.55 c -0.15,0 0,0 0,0 h 0.08 c 0.08,0 0,0 0,0 a 0.205,0.205 0 0 0 -0.11,0 c -0.23,0.05 -0.45,0.13 -0.66,0.25 -0.29,0.15 -0.57,0.34 -0.83,0.54 -0.29,0.22 -0.57,0.46 -0.84,0.72 -0.53,0.51 -1,1 -1.3,1.39 L 78,49 77.78,49.27 a 4.244,4.244 0 0 1 -5.63,0.61 3.532,3.532 0 0 1 -1.47,-3.47 c 0,0 0.07,-0.41 0.27,-1.12 0.3,-1.02 0.72,-1.99 1.25,-2.91 0.85,-1.5 2,-2.8 3.37,-3.84 0.91,-0.7 1.92,-1.26 3,-1.66 0.3,-0.12 0.61,-0.21 0.92,-0.29 0.33,-0.09 0.66,-0.17 1,-0.23 l 0.62,-0.09 0.5,-0.05 h 1.85 c 0.34,0 0.67,0.09 1,0.14 0.64,0.11 1.28,0.28 1.89,0.51 1.08,0.39 2.09,0.95 3,1.66 1.38,1.04 2.53,2.34 3.38,3.84 0.31,0.52 0.58,1.07 0.8,1.64 0.19,0.44 0.35,0.88 0.48,1.34 0.07,0.24 0.13,0.48 0.16,0.72 v 0.25 a 3.754,3.754 0 0 1 -3.09,4.31 c -0.03,0 -0.05,0.01 -0.08,0.01 -1.49,0.24 -3,-0.34 -3.94,-1.52 z"
       fill="#422b0d"
       id="path21" />
    <path
       d="m 94.8,78.85 c -2.22,-3.18 -8,0.07 -8,0.07 0,0 3,-2.61 5.5,-5 1.6,-1.53 3,-4.79 1.69,-7 C 92.68,64.71 88.87,64.85 87,66 l -7.33,4.5 c 0,0 2.75,-1.2 3.58,-5.92 a 3.58,3.58 0 0 0 -2.51,-4.4 c -0.36,-0.1 -0.73,-0.14 -1.1,-0.12 -1.73,0.15 -3.38,0.79 -4.77,1.84 -5.3,3.76 -19.45,13.35 -22.62,13.1 -1.23,-0.1 -1.34,-0.29 1.25,-5.83 1.74,-3.32 1.9,-7.25 0.44,-10.7 -0.85,-2 -4.77,-2.55 -6,-0.62 -0.93,1.42 -1.6,4.9 -3.22,8.4 C 42,72 35.73,79.72 35.22,80.48 31.49,86 24.54,96.29 31.82,107.83 c 6.44,10.22 21.14,10.7 28.67,8 14.39,-5.1 27.64,-14.9 27.89,-15.1 2.62,-2.08 5,-5.13 3.92,-7.91 -1.33,-3.44 -5.74,-1.4 -5.74,-1.4 2.55,-1.55 4.84,-3.5 6.77,-5.78 1.83,-2.36 2.96,-4.64 1.47,-6.79 z"
       fill="url(#IconifyId17ecdb2904d178eab7975)"
       id="path22"
       style="fill:url(#IconifyId17ecdb2904d178eab7975)" />
    <path
       d="m 94.52,86.56 c 1.18,-1.52 3.94,-5.07 1.52,-8.56 -0.87,-1.23 -2.08,-2 -3.49,-2.24 2.37,-1.97 4.91,-6.57 2.2,-10.35 -1.01,-1.41 -2.94,-2.51 -6.01,-1.8 -2.21,0.51 -4.19,2.14 -4.19,2.14 0.07,-0.27 1.81,-5.18 -4.2,-6.4 -2.42,-0.49 -5.17,1.11 -6.75,2.3 -9.13,6.48 -20.98,12.64 -20.58,11.79 3.85,-4.67 4.63,-11.58 2.26,-15.68 -0.84,-1.99 -5.96,-3.48 -7.63,-0.74 -1.37,2.25 -2.28,7.63 -4.84,11.91 -1.98,3.31 -11.02,14.7 -12.65,20.34 0,0 2.21,-3.29 5.7,-7.94 3.71,-4.96 8.75,-11.38 10.24,-14.45 1.35,-2.73 1.98,-6 3.12,-8.22 0.56,-0.93 2.83,-1.81 4.29,1.05 1.46,2.86 0.76,6.32 -1.26,10.19 -2.08,4.44 -3,4.61 -2.06,5.59 3.18,3.27 21.53,-9.82 25.6,-12.38 a 7.738,7.738 0 0 1 3.93,-1.54 c 2.74,-0.39 2.6,3.45 2.6,3.45 -0.77,3.15 -1.26,3.15 -4.4,5.79 -2.23,1.87 -10.12,7.61 -15.24,10.19 0,0 0.09,1.17 2.46,0.5 2.38,-0.67 11.71,-6.54 16.74,-10.57 0,0 6.52,-5.57 9.3,-4.79 2.82,0.8 2.57,2.76 1.68,4.62 -0.88,1.86 -3.19,4.1 -6.85,6.89 -6.58,5 -16.77,11.82 -16.77,11.82 0,0 0.21,1 2.19,0.43 4.03,-1.17 16.61,-10.49 16.61,-10.49 0.98,-0.76 4.26,-1.81 5.54,0.34 0.69,1.01 0.53,2.66 -1.89,5.52 -2.88,3.43 -11.67,9.41 -19.31,13.75 0,0 0.58,0.98 2.69,0.26 2.1,-0.72 10.83,-6.03 12.21,-6.49 1.38,-0.46 2.76,-0.9 3.68,0.73 1.09,2.25 -0.37,4.03 -3.26,6.33 -0.14,0.05 -13.9,10.8 -28.2,15.65 -7.56,2.56 -16.01,1.24 -25.7,-5.09 5.88,7.1 18.72,10.27 27.43,7.09 14.65,-5.36 28.21,-15.25 28.32,-15.34 2.1,-1.67 6.47,-5.13 4.06,-10.08 -0.63,-1.11 -1.47,-1.8 -2.39,-2.19 1.17,-1.01 2.27,-2.12 3.3,-3.33 z"
       fill="#eb8f00"
       id="path23" />
  </g>
</svg>
