<?xml version="1.0" encoding="UTF-8" standalone="no"?>
<!-- Uploaded to: SVG Repo, www.svgrepo.com, Generator: SVG Repo Mixer Tools -->

<svg
   version="1.1"
   id="Layer_1"
   viewBox="0 0 23.999998 23.999998"
   xml:space="preserve"
   sodipodi:docname="prices.svg"
   width="23.999998"
   height="23.999998"
   inkscape:version="1.3.2 (091e20e, 2023-11-25, custom)"
   xmlns:inkscape="http://www.inkscape.org/namespaces/inkscape"
   xmlns:sodipodi="http://sodipodi.sourceforge.net/DTD/sodipodi-0.dtd"
   xmlns="http://www.w3.org/2000/svg"
   xmlns:svg="http://www.w3.org/2000/svg"><defs
   id="defs11" /><sodipodi:namedview
   id="namedview11"
   pagecolor="#ffffff"
   bordercolor="#000000"
   borderopacity="0.25"
   inkscape:showpageshadow="2"
   inkscape:pageopacity="0.0"
   inkscape:pagecheckerboard="true"
   inkscape:deskcolor="#d1d1d1"
   inkscape:zoom="34.208336"
   inkscape:cx="11.999999"
   inkscape:cy="11.999999"
   inkscape:window-width="1920"
   inkscape:window-height="1017"
   inkscape:window-x="-8"
   inkscape:window-y="-8"
   inkscape:window-maximized="1"
   inkscape:current-layer="Layer_1" />





<g
   id="g11"
   transform="scale(0.04752475)"><circle
     style="fill:#fd8469"
     cx="252.5"
     cy="252.5"
     r="252.5"
     id="circle1" /><g
     id="g2">
	<path
   style="fill:#324a5e"
   d="M 342.1,115.9 H 162.8 c -16.6,0 -30.1,13.5 -30.1,30.1 v 250 c 0,14.9 12.1,27 27,27 h 185.5 c 15,0 27,-12.1 27,-27 V 146 c 0.1,-16.6 -13.4,-30.1 -30.1,-30.1 z m -89.6,68.4 c -14.1,0 -24.4,-16.4 -12.9,-31.1 14.7,-11 30.7,-0.7 30.7,13.3 0,9.8 -7.9,17.8 -17.8,17.8 z"
   id="path1" />
	<path
   style="fill:#324a5e"
   d="m 330.6,120.2 c -1.7,2.1 -3.8,4.3 -6.1,6.6 -16.1,16.1 -38.8,31.1 -54.4,36.7 0.2,0.9 0.3,1.9 0.3,3 0,3.8 -1.2,7.3 -3.2,10.2 19.3,-4.5 47.8,-23.6 65.7,-41.5 3.3,-3.3 6.2,-6.5 8.6,-9.6 -3.5,-2.1 -7.1,-3.9 -10.9,-5.4 z"
   id="path2" />
</g><rect
     x="165.89999"
     y="277.20001"
     style="fill:#ffffff"
     width="173.10001"
     height="110.4"
     id="rect2" /><g
     id="g10">
	<rect
   x="184.60001"
   y="294.89999"
   style="fill:#324a5e"
   width="12.5"
   height="75.099998"
   id="rect3" />
	<rect
   x="205.2"
   y="294.89999"
   style="fill:#324a5e"
   width="12.5"
   height="68.099998"
   id="rect4" />
	<rect
   x="225.8"
   y="294.89999"
   style="fill:#324a5e"
   width="12.5"
   height="68.099998"
   id="rect5" />
	<rect
   x="246.39999"
   y="294.89999"
   style="fill:#324a5e"
   width="12.5"
   height="68.099998"
   id="rect6" />
	<rect
   x="266.5"
   y="294.89999"
   style="fill:#324a5e"
   width="10.2"
   height="68.099998"
   id="rect7" />
	<rect
   x="283.20001"
   y="294.89999"
   style="fill:#324a5e"
   width="10.2"
   height="68.099998"
   id="rect8" />
	<rect
   x="299.79999"
   y="294.89999"
   style="fill:#324a5e"
   width="7.8000002"
   height="68.099998"
   id="rect9" />
	<rect
   x="312.60001"
   y="294.89999"
   style="fill:#324a5e"
   width="7.8000002"
   height="75.099998"
   id="rect10" />
</g><path
     style="fill:#e6e9ee"
     d="m 252.5,141 c -14.1,0 -25.5,11.4 -25.5,25.5 0,14 11.4,25.4 25.5,25.4 14.1,0 25.5,-11.4 25.5,-25.4 0,-14.1 -11.4,-25.5 -25.5,-25.5 z m 0,43.3 c -9.9,0 -17.8,-8 -17.8,-17.8 0,-9.9 8,-17.9 17.8,-17.9 9.8,0 17.8,8 17.8,17.9 0,9.8 -7.9,17.8 -17.8,17.8 z"
     id="path10" /><path
     style="fill:#ffd05b"
     d="m 342.7,78.4 c -16,-15.9 -34,-12.9 -56.9,9.9 -7.8,7.8 -15.8,17.6 -22.7,27.7 h 14.5 c 5.2,-7 10.9,-13.7 16.5,-19.3 10.8,-10.8 20,-16.3 27.2,-16.3 4.4,0 8.5,2.1 12.9,6.4 4.8,4.8 13.3,13.3 -3.7,33.5 -1.7,2.1 -3.8,4.3 -6.1,6.6 -16.1,16.1 -38.8,31.1 -54.4,36.7 -4.2,1.5 -7.9,2.3 -10.7,2.3 -1.6,0 -2.8,-0.3 -3.4,-0.8 -1.3,-1.3 -1.4,-6.4 2.1,-15.5 -1.8,-0.6 -3.6,-0.9 -5.6,-0.9 -2.6,0 -5,0.6 -7.2,1.5 -3.3,10.7 -2.5,18.5 2.3,23.3 2.8,2.8 6.7,4.3 11.7,4.3 2.4,0 5,-0.4 7.8,-1 19.3,-4.5 47.8,-23.6 65.7,-41.5 3.3,-3.3 6.2,-6.5 8.6,-9.6 14.5,-18.3 14.8,-33.8 1.4,-47.3 z"
     id="path11" /></g>
</svg>
