<?xml version="1.0" encoding="UTF-8" standalone="no"?>
<!-- Uploaded to: SVG Repo, www.svgrepo.com, Generator: SVG Repo Mixer Tools -->

<svg
   height="25"
   width="24.999998"
   version="1.1"
   id="Layer_1"
   viewBox="0 0 15.999999 16"
   xml:space="preserve"
   sodipodi:docname="receipts.svg"
   inkscape:version="1.3.2 (091e20e, 2023-11-25, custom)"
   xmlns:inkscape="http://www.inkscape.org/namespaces/inkscape"
   xmlns:sodipodi="http://sodipodi.sourceforge.net/DTD/sodipodi-0.dtd"
   xmlns="http://www.w3.org/2000/svg"
   xmlns:svg="http://www.w3.org/2000/svg"><defs
   id="defs4" /><sodipodi:namedview
   id="namedview4"
   pagecolor="#ffffff"
   bordercolor="#000000"
   borderopacity="0.25"
   inkscape:showpageshadow="2"
   inkscape:pageopacity="0.0"
   inkscape:pagecheckerboard="true"
   inkscape:deskcolor="#d1d1d1"
   inkscape:zoom="32.84"
   inkscape:cx="12.5"
   inkscape:cy="12.5"
   inkscape:window-width="1920"
   inkscape:window-height="1017"
   inkscape:window-x="-8"
   inkscape:window-y="-8"
   inkscape:window-maximized="1"
   inkscape:current-layer="Layer_1" />



<g
   id="g4"
   transform="matrix(0.04637076,0,0,0.03125,-3.871031,0)"><path
     style="fill:#e3d7b1"
     d="m 83.48,0 h 43.603 c 3.141,0 5.688,2.492 5.688,5.565 v 20.87 c 0,3.073 2.547,5.565 5.688,5.565 h 37.916 c 3.141,0 5.688,-2.492 5.688,-5.565 V 5.565 C 182.063,2.492 184.61,0 187.751,0 h 37.917 c 3.141,0 5.688,2.492 5.688,5.565 v 20.87 c 0,3.073 2.547,5.565 5.688,5.565 h 37.917 c 3.141,0 5.688,-2.492 5.688,-5.565 V 5.565 C 280.649,2.492 283.196,0 286.337,0 h 37.916 c 3.141,0 5.688,2.492 5.688,5.565 v 20.87 c 0,3.073 2.547,5.565 5.688,5.565 h 37.917 c 3.141,0 5.688,-2.492 5.688,-5.565 V 5.565 C 379.234,2.492 381.781,0 384.922,0 h 37.915 c 3.141,0 5.688,2.492 5.688,5.565 v 500.87 c 0,3.073 -2.547,5.565 -5.688,5.565 H 89.168 c -3.141,0 -5.688,-2.492 -5.688,-5.565 z"
     id="path1" /><path
     style="fill:#57544c"
     d="m 226.063,228.051 h -75.857 c -6.283,0 -11.376,-4.983 -11.376,-11.13 0,-6.147 5.093,-11.13 11.376,-11.13 h 75.857 c 6.283,0 11.376,4.983 11.376,11.13 0,6.147 -5.093,11.13 -11.376,11.13 z m 11.375,32.968 c 0,-6.147 -5.093,-11.13 -11.376,-11.13 h -75.857 c -6.283,0 -11.376,4.983 -11.376,11.13 0,6.147 5.093,11.13 11.376,11.13 h 75.857 c 6.284,0 11.376,-4.983 11.376,-11.13 z m 135.739,0 c 0,-6.147 -5.093,-11.13 -11.376,-11.13 h -44.124 c -6.283,0 -11.376,4.983 -11.376,11.13 0,6.147 5.093,11.13 11.376,11.13 h 44.124 c 6.283,0 11.376,-4.983 11.376,-11.13 z M 237.438,320 c 0,-6.147 -5.093,-11.13 -11.376,-11.13 h -75.857 c -6.283,0 -11.376,4.983 -11.376,11.13 0,6.147 5.093,11.13 11.376,11.13 h 75.857 c 6.284,0 11.376,-4.983 11.376,-11.13 z m 135.739,0 c 0,-6.147 -5.093,-11.13 -11.376,-11.13 h -44.124 c -6.283,0 -11.376,4.983 -11.376,11.13 0,6.147 5.093,11.13 11.376,11.13 h 44.124 c 6.283,0 11.376,-4.983 11.376,-11.13 z m 0,64 c 0,-6.147 -5.093,-11.13 -11.376,-11.13 H 150.205 c -6.283,0 -11.376,4.983 -11.376,11.13 0,6.147 5.093,11.13 11.376,11.13 h 211.596 c 6.283,0 11.376,-4.983 11.376,-11.13 z m 0,64 c 0,-6.147 -5.093,-11.13 -11.376,-11.13 h -44.124 c -6.283,0 -11.376,4.983 -11.376,11.13 0,6.147 5.093,11.13 11.376,11.13 h 44.124 c 6.283,0 11.376,-4.983 11.376,-11.13 z"
     id="path2" /><path
     style="fill:#939b48"
     d="m 254.123,77.913 c 34.553,0 62.568,19.933 62.568,44.522 0,24.589 -28.014,44.522 -62.568,44.522 -34.557,0 -62.57,-19.933 -62.57,-44.522 0,-24.589 28.014,-44.522 62.57,-44.522 z"
     id="path3" /><path
     style="fill:#612324"
     d="m 254.123,100.174 c 15.706,0 28.439,9.966 28.439,22.261 0,12.295 -12.733,22.261 -28.439,22.261 -15.707,0 -28.44,-9.966 -28.44,-22.261 0,-12.295 12.733,-22.261 28.44,-22.261 z"
     id="path4" /></g>
</svg>
