<?xml version="1.0" encoding="UTF-8" standalone="no"?>
<!-- Uploaded to: SVG Repo, www.svgrepo.com, Generator: SVG Repo Mixer Tools -->

<svg
   version="1.1"
   id="Layer_1"
   viewBox="0 0 24 24"
   xml:space="preserve"
   sodipodi:docname="revenues.svg"
   width="24"
   height="24"
   inkscape:version="1.3.2 (091e20e, 2023-11-25, custom)"
   xmlns:inkscape="http://www.inkscape.org/namespaces/inkscape"
   xmlns:sodipodi="http://sodipodi.sourceforge.net/DTD/sodipodi-0.dtd"
   xmlns="http://www.w3.org/2000/svg"
   xmlns:svg="http://www.w3.org/2000/svg"><defs
   id="defs14" /><sodipodi:namedview
   id="namedview14"
   pagecolor="#ffffff"
   bordercolor="#000000"
   borderopacity="0.25"
   inkscape:showpageshadow="2"
   inkscape:pageopacity="0.0"
   inkscape:pagecheckerboard="true"
   inkscape:deskcolor="#d1d1d1"
   inkscape:zoom="34.208333"
   inkscape:cx="12"
   inkscape:cy="12"
   inkscape:window-width="1920"
   inkscape:window-height="1017"
   inkscape:window-x="-8"
   inkscape:window-y="-8"
   inkscape:window-maximized="1"
   inkscape:current-layer="Layer_1" />












<g
   id="g15"
   transform="matrix(0.046875,0,0,0.05118908,0,-1.1044044)"><polygon
     style="fill:#abb9c6"
     points="328.578,437.253 333.492,448.737 346.4,478.938 165.605,478.938 178.512,448.737 183.427,437.253 194.153,412.162 317.852,412.162 "
     id="polygon1" /><polygon
     style="fill:#93a0aa"
     points="194.153,412.162 317.852,412.162 328.578,437.253 183.427,437.253 "
     id="polygon2" /><path
     style="fill:#b6c7d3"
     d="M 393.462,490.425 H 118.535 v 0 c 9.791,-14.369 26.054,-22.967 43.442,-22.967 H 350.02 c 17.389,0 33.652,8.598 43.442,22.967 z"
     id="path2" /><path
     style="fill:#abb9c6"
     d="m 512,55.096 v 326.991 c 0,18.511 -14.997,33.52 -33.509,33.52 H 33.509 C 14.997,415.607 0,400.598 0,382.087 V 55.096 C 0,36.585 14.997,21.576 33.509,21.576 h 444.983 c 18.511,0 33.508,15.009 33.508,33.52 z"
     id="path3" /><path
     style="fill:#c5d6e2"
     d="m 512,55.096 v 326.991 c 0,18.511 -14.997,33.52 -33.509,33.52 H 180.898 L 205.45,355.732 342.47,21.576 h 136.021 c 18.512,0 33.509,15.009 33.509,33.52 z"
     id="path4" /><path
     style="fill:#93a0aa"
     d="m 256.002,393.214 c -3.448,0 -6.634,-2.135 -7.958,-5.317 -1.465,-3.521 -0.359,-7.694 2.622,-10.058 6.24,-4.949 15.53,0.968 13.723,8.703 -0.899,3.846 -4.421,6.672 -8.387,6.672 z"
     id="path5" /><path
     style="fill:#b8e9f2"
     d="M 512,55.095 V 355.731 H 0 V 55.095 C 0,36.584 14.997,21.575 33.51,21.575 h 444.982 c 18.511,0 33.508,15.01 33.508,33.52"
     id="path6" /><path
     style="fill:#d4f7fc"
     d="M 512,55.095 V 355.731 H 205.45 L 342.47,21.575 h 136.021 c 18.512,0 33.509,15.01 33.509,33.52"
     id="path7" /><g
     id="g8">
	
		<rect
   x="127.696"
   y="173.04201"
   transform="matrix(-0.6771,-0.7359,0.7359,-0.6771,51.9697,502.855)"
   style="fill:#b24f4f"
   width="17.225"
   height="133.967"
   id="rect7" />
	<polyline
   style="fill:#b24f4f"
   points="331.013,269.368 316.737,259.732 420.353,106.207 434.629,115.843 331.013,269.368  "
   id="polyline7" />
	<polyline
   style="fill:#b24f4f"
   points="299.208,274.572 202.337,200.514 212.798,186.831 309.669,260.887 299.208,274.572  "
   id="polyline8" />
</g><g
     id="g9">
	<circle
   style="fill:#f75757"
   cx="76.480003"
   cy="295.10101"
   r="22.966999"
   id="circle8" />
	<path
   style="fill:#f75757"
   d="m 338.809,276.45 c 0,-12.685 -10.283,-22.967 -22.967,-22.967 -12.685,0 -22.967,10.282 -22.967,22.967 0,12.683 10.282,22.967 22.967,22.967 12.684,0 22.967,-10.283 22.967,-22.967"
   id="path8" />
	<path
   style="fill:#f75757"
   d="m 458.492,99.12 c 0,-12.683 -10.282,-22.967 -22.967,-22.967 -12.685,0 -22.967,10.283 -22.967,22.967 0,12.685 10.282,22.967 22.967,22.967 12.685,0 22.967,-10.282 22.967,-22.967"
   id="path9" />
	<circle
   style="fill:#f75757"
   cx="196.16"
   cy="184.952"
   r="22.966999"
   id="circle9" />
</g><path
     style="fill:#d4f7fc"
     d="M 478.491,21.575 H 342.47 l -82.538,201.29 44.225,33.808 c 3.423,-2.027 7.418,-3.191 11.686,-3.191 1.638,0 3.236,0.171 4.776,0.497 l 95.857,-142.027 c -2.474,-3.664 -3.917,-8.08 -3.917,-12.834 0,-12.683 10.282,-22.967 22.967,-22.967 12.685,0 22.967,10.283 22.967,22.967 0,12.685 -10.282,22.967 -22.967,22.967 -1.636,0 -3.235,-0.171 -4.774,-0.497 l -95.857,142.028 c 2.472,3.663 3.916,8.079 3.916,12.832 0,12.683 -10.283,22.967 -22.967,22.967 -12.685,0 -22.967,-10.282 -22.967,-22.967 0,-2.11 0.285,-4.154 0.818,-6.094 L 253.164,239.373 205.45,355.733 H 512 V 55.096 C 512,36.585 497.003,21.575 478.491,21.575"
     id="path10" /><g
     id="g12">
	<path
   style="fill:#bf7070"
   d="M 416.475,111.953 320.618,253.98 c 5.922,1.253 11,4.785 14.275,9.639 L 430.75,121.591 c -5.921,-1.253 -11,-4.786 -14.275,-9.638"
   id="path11" />
	<path
   style="fill:#bf7070"
   d="m 259.932,222.865 -6.768,16.507 40.528,30.985 c 1.593,-5.801 5.404,-10.685 10.464,-13.682 l -44.224,-33.81"
   id="path12" />
</g><g
     id="g14">
	<path
   style="fill:#f67676"
   d="m 315.842,253.483 c -4.267,0 -8.262,1.163 -11.686,3.191 -5.061,2.997 -8.872,7.881 -10.464,13.682 -0.533,1.941 -0.818,3.985 -0.818,6.094 0,12.683 10.282,22.967 22.967,22.967 12.683,0 22.967,-10.282 22.967,-22.967 0,-4.752 -1.443,-9.168 -3.916,-12.832 -3.275,-4.853 -8.353,-8.386 -14.275,-9.639 -1.539,-0.325 -3.137,-0.496 -4.775,-0.496"
   id="path13" />
	<path
   style="fill:#f67676"
   d="m 435.525,76.154 c -12.685,0 -22.967,10.283 -22.967,22.967 0,4.754 1.443,9.17 3.917,12.834 3.275,4.852 8.354,8.385 14.276,9.637 1.54,0.325 3.137,0.497 4.774,0.497 12.685,0 22.967,-10.282 22.967,-22.967 0,-12.685 -10.282,-22.968 -22.967,-22.968"
   id="path14" />
</g></g>
</svg>
